<?xml version="1.0" encoding="utf-8"?>
<!-- Generator: Adobe Illustrator 19.1.0, SVG Export Plug-In . SVG Version: 6.00 Build 0)  -->
<svg version="1.1" id="Layer_1" xmlns="http://www.w3.org/2000/svg" xmlns:xlink="http://www.w3.org/1999/xlink" x="0px" y="0px"
	 viewBox="0 0 26 22" style="enable-background:new 0 0 26 22;" xml:space="preserve">
<style type="text/css">
	.st0{fill-rule:evenodd;clip-rule:evenodd;fill:#1A1818;}
</style>
<path class="st0" d="M22,22c0.4,0,0.8,0,1.2-0.1c0.4-0.1,0.7-0.4,0.8-0.8c0.1-0.4,0-0.8-0.3-1.1c-0.6-0.6-1.3-1.8-2-3.3
	c2.7-1.8,4.2-4.4,4.2-7.1c0-2.6-1.4-5.1-4-6.9C19.6,1,16.4,0,13,0S6.4,1,4,2.7C1.4,4.5,0,7,0,9.6c0,2.6,1.4,5.1,4,6.9
	c2.4,1.7,5.6,2.7,9,2.7c0.6,0,1.3,0,1.9-0.1C17.2,20.9,19.9,22,22,22 M13,2.2c5.9,0,10.8,3.3,10.8,7.4c0,2.2-1.4,4.3-4,5.7
	c-0.5,0.3-0.7,0.9-0.5,1.4c0.3,0.7,0.8,1.9,1.4,2.9c-1.4-0.3-3.2-1.2-4.7-2.5c-0.2-0.2-0.6-0.3-0.9-0.3c-0.7,0.1-1.4,0.1-2.1,0.1
	c-5.9,0-10.8-3.3-10.8-7.4C2.2,5.5,7.1,2.2,13,2.2"/>
</svg>
