<?xml version="1.0" encoding="utf-8"?>
<!-- Generator: Adobe Illustrator 19.1.0, SVG Export Plug-In . SVG Version: 6.00 Build 0)  -->
<svg version="1.1" id="Layer_1" xmlns="http://www.w3.org/2000/svg" xmlns:xlink="http://www.w3.org/1999/xlink" x="0px" y="0px"
	 viewBox="0 0 23 23" style="enable-background:new 0 0 23 23;" xml:space="preserve">
<style type="text/css">
	.st0{fill-rule:evenodd;clip-rule:evenodd;fill:#1A1818;}
	.st1{fill:none;}
</style>
<path class="st0" d="M5.1,0c0.4,0.2,0.6,0.6,0.8,0.9C6.5,2,7.1,3.1,7.7,4.2C7.8,4.4,8,4.7,8.2,5c0.2,0.4,0.2,0.7,0,1.1
	C7.8,6.6,7.3,6.9,6.8,7.3C6.4,7.7,6,8.1,5.6,8.4C5.4,8.7,5.4,9,5.5,9.3c0.2,0.4,0.4,0.7,0.6,1c0.4,0.7,0.9,1.4,1.3,2
	c0.7,0.9,1.4,1.8,2.3,2.5c0.8,0.7,1.7,1.3,2.7,1.9c0.4,0.2,0.8,0.5,1.3,0.7c0.5,0.2,0.7,0.1,1.1-0.2c0.5-0.5,0.9-1.1,1.4-1.6
	c0.3-0.3,0.5-0.6,0.8-0.8c0.3-0.3,0.7-0.3,1.1,0c0.4,0.3,0.9,0.6,1.3,0.8c0.9,0.5,1.8,1,2.7,1.5c0.2,0.1,0.4,0.3,0.7,0.4
	c0.1,0.1,0.2,0.2,0.2,0.3v0.5c0,0,0,0.1,0,0.1c-0.1,0.4-0.2,0.9-0.3,1.3c-0.1,0.4-0.3,0.9-0.6,1.2c-0.4,0.3-0.7,0.6-1.1,0.8
	c-0.7,0.4-1.4,0.8-2.2,0.9c-0.3,0.1-0.6,0.1-0.8,0.2h-1c-0.1,0-0.1,0-0.2,0c-0.4-0.1-0.7-0.1-1.1-0.2c-1.2-0.4-2.4-0.8-3.6-1.3
	c-1.5-0.6-2.8-1.5-4-2.5c-0.8-0.7-1.6-1.4-2.4-2.2c-0.6-0.6-1.2-1.3-1.8-2c-0.4-0.5-0.8-1-1.1-1.5c-0.4-0.6-0.8-1.3-1.1-1.9
	c-0.4-0.8-0.7-1.6-1-2.4C0.6,8.4,0.4,7.7,0.2,7.1C0.1,6.8,0.1,6.4,0,6.1v-1C0,5,0,5,0,4.9c0.1-0.4,0.1-0.7,0.2-1.1
	c0.2-0.7,0.5-1.4,1-2c0.3-0.4,0.6-0.7,0.9-1C2.5,0.4,3,0.3,3.5,0.2C3.8,0.1,4.2,0.1,4.6,0H5.1z"/>
<rect x="-317.7" y="-832.7" class="st1" width="1024" height="1113"/>
</svg>
